<svg xmlns="http://www.w3.org/2000/svg" viewBox="0 0 64 64">
  <defs>
    <linearGradient id="g" x1="4" y1="60" x2="60" y2="4" gradientUnits="userSpaceOnUse">
      <stop offset="0" stop-color="#6366f1" />
      <stop offset="0.5" stop-color="#ec4899" />
      <stop offset="1" stop-color="#22d3ee" />
    </linearGradient>
  </defs>
  <rect width="64" height="64" rx="18" fill="url(#g)" />
  <path
    d="M22.4 42c-4.7 0-8.4-3.7-8.4-8.4 0-4 2.8-7.5 6.6-8.3a11.5 11.5 0 0 1 22.8-2.8 9.9 9.9 0 0 1-1.5 19.8h-19.5z"
    fill="#fff"
    opacity="0.9"
  />
  <path
    d="M24 34.8c1.7 0 3.3.9 4.2 2.3 1-1.4 2.6-2.3 4.3-2.3 2.9 0 5.3 2.4 5.3 5.3V42H18.7v-1.9c0-2.9 2.4-5.3 5.3-5.3z"
    fill="#0f172a"
    opacity="0.75"
  />
</svg>

